HIERARCHY
ROOT Hips
{
	OFFSET 0.00000 0.00000 0.00000
	CHANNELS 6 Xposition Yposition Zposition Zrotation Yrotation Xrotation 
	JOINT LHipJoint
	{
		OFFSET 0 0 0
		CHANNELS 3 Zrotation Yrotation Xrotation
		JOINT LeftHip
		{
			OFFSET 1.36337 -1.57426 1.11036
			CHANNELS 3 Zrotation Yrotation Xrotation
			JOINT LeftKnee
			{
				OFFSET 2.38468 -6.55187 0.00000
				CHANNELS 3 Zrotation Yrotation Xrotation
				JOINT LeftAnkle
				{
					OFFSET 2.37166 -6.51609 0.00000
					CHANNELS 3 Zrotation Yrotation Xrotation
					JOINT LeftToe
					{
						OFFSET 0.29078 -0.79891 2.01393
						CHANNELS 3 Zrotation Yrotation Xrotation
						End Site
						{
							OFFSET 0.00000 -0.00000 1.07924
						}
					}
				}
			}
		}
	}
	JOINT RHipJoint
	{
		OFFSET 0 0 0
		CHANNELS 3 Zrotation Yrotation Xrotation
		JOINT RightHip
		{
			OFFSET -1.36349 -1.57426 1.11036
			CHANNELS 3 Zrotation Yrotation Xrotation
			JOINT RightKnee
			{
				OFFSET -2.29562 -6.30717 0.00000
				CHANNELS 3 Zrotation Yrotation Xrotation
				JOINT RightAnkle
				{
					OFFSET -2.40985 -6.62100 0.00000
					CHANNELS 3 Zrotation Yrotation Xrotation
					JOINT RightToe
					{
						OFFSET -0.23197 -0.63733 1.92232
						CHANNELS 3 Zrotation Yrotation Xrotation
						End Site
						{
							OFFSET -0.00000 -0.00000 1.01562
						}
					}
				}
			}
		}
	}
	JOINT lowerback
	{
		OFFSET 0 0 0
		CHANNELS 3 Zrotation Yrotation Xrotation
		JOINT Chest
		{
			OFFSET -0.08565 2.03602 -0.24562
			CHANNELS 3 Zrotation Yrotation Xrotation
			JOINT Chest2
			{
				OFFSET -0.00036 2.05693 0.00216
				CHANNELS 3 Zrotation Yrotation Xrotation
				JOINT lowerneck
				{
					OFFSET 0 0 0
					CHANNELS 3 Zrotation Yrotation Xrotation
					JOINT Neck
					{
						OFFSET -0.03664 1.69515 0.31789
						CHANNELS 3 Zrotation Yrotation Xrotation
						JOINT Head
						{
							OFFSET 0.00932 1.70181 -0.46013
							CHANNELS 3 Zrotation Yrotation Xrotation
							End Site
							{
								OFFSET 0.01243 1.77620 -0.19377
							}
						}
					}
				}
				JOINT LeftCollar
				{
					OFFSET 0 0 0
					CHANNELS 3 Zrotation Yrotation Xrotation
					JOINT LeftShoulder
					{
						OFFSET 3.74344 0.81315 -0.36647
CHANNELS 3 Zrotation Xrotation Yrotation
						JOINT LeftElbow
						{
OFFSET 0 -4.971850 -0.000000
CHANNELS 3 Zrotation Xrotation Yrotation
							JOINT LeftWrist
							{
OFFSET 0 -3.358110 0.000000
CHANNELS 3 Zrotation Xrotation Yrotation
								JOINT lhand
								{
									OFFSET 0 0 0
CHANNELS 3 Zrotation Xrotation Yrotation
									JOINT LFingers
									{
OFFSET 0 -0.622780 0.000000
CHANNELS 3 Zrotation Xrotation Yrotation
										End Site
										{
OFFSET 0 -0.502100 0.000000
										}
									}
								}
								JOINT LThumb
								{
OFFSET 0 0.000000 0.000000
CHANNELS 3 Zrotation Xrotation Yrotation
									End Site
									{
OFFSET 0 -0.509760 0.509760
									}
								}
							}
						}
					}
				}
				JOINT RightCollar
				{
					OFFSET 0 0 0
					CHANNELS 3 Zrotation Yrotation Xrotation
					JOINT RightShoulder
					{
						OFFSET -3.75385 0.50666 -0.06525
CHANNELS 3 Zrotation Xrotation Yrotation
						JOINT RightElbow
						{
OFFSET 0 -4.964930 -0.000000
CHANNELS 3 Zrotation Xrotation Yrotation
							JOINT RightWrist
							{
OFFSET 0 -3.349290 0.000000
CHANNELS 3 Zrotation Xrotation Yrotation
								JOINT rhand
								{
									OFFSET 0 0 0
CHANNELS 3 Zrotation Xrotation Yrotation
									JOINT RFingers
									{
OFFSET 0 -0.638040 0.000000
CHANNELS 3 Zrotation Xrotation Yrotation
										End Site
										{
OFFSET 0 -0.514410 0.000000
										}
									}
								}
								JOINT RThumb
								{
OFFSET 0 0.000000 0.000000
CHANNELS 3 Zrotation Xrotation Yrotation
									End Site
									{
OFFSET 0 -0.522260 0.522260
									}
								}
							}
						}
					}
				}
			}
		}
	}
}
MOTION
Frames: 7
Frame Time: 0.008333333333333333
3.422177 15.111097 -9.423154 138.457341 -78.867331 237.347838 0.000000 0.000000 0.000000 -16.070887 2.850543 -54.055909 14.230337 19.182312 72.906569 -1.322604 -22.309830 -2.622820 1.841853 -8.528597 -24.331520 0.000000 0.000000 0.000000 -4.057539 8.552638 -52.488452 -10.084271 -17.456199 59.768594 -1.219787 -2.014770 -21.676516 -0.170728 2.661736 -7.338308 3.440570 -1.501240 30.398845 -0.496177 -1.656143 7.327661 -1.901464 -1.127464 -8.504373 -4.680725 2.174374 -32.154437 -15.071412 8.644328 18.067746 -3.368521 1.202485 11.932728 0.000000 0.000000 0.000000 -7.095879 -31.550256 -111.451883 33.199238 -43.482548 13.558997 20.728048 -7.858520 13.215866 0.000000 0.000000 0.000000 -7.125000 0.000000 0.000000 -4.549617 15.911474 -3.133772 0.000000 0.000000 0.000000 -6.288249 -8.726680 47.777647 -23.712977 -34.859194 -7.541893 15.070581 -70.433466 38.923830 0.000000 0.000000 0.000000 7.125000 0.000000 0.000000 57.062429 59.682740 -25.303565
3.283772 14.992874 -9.650582 123.667659 -80.104427 251.972139 0.000000 0.000000 0.000000 -15.149170 4.519727 -55.981275 14.200090 19.173233 72.814328 -0.361602 -15.886732 -7.060514 2.097791 -9.064570 -25.999070 0.000000 0.000000 0.000000 -3.459293 6.430571 -52.493674 -10.969029 -17.918835 62.679530 -1.428145 -2.340817 -23.521984 -0.242535 3.162108 -8.730990 4.266306 -2.137823 30.668199 -0.828988 -2.240725 7.553970 -2.538310 -1.408589 -8.441389 -7.368651 -1.331138 -33.014944 -10.929186 4.084352 18.176170 -2.252211 -0.453171 11.566517 0.000000 0.000000 0.000000 -6.909102 -31.565335 -111.089346 33.295081 -43.555625 13.624969 23.089294 -9.164253 14.322002 0.000000 0.000000 0.000000 -7.125000 0.000000 0.000000 -2.985074 14.482362 -2.145199 0.000000 0.000000 0.000000 -6.390026 -9.156966 48.380234 -23.799042 -34.951031 -7.591136 16.586400 -70.975591 34.693781 0.000000 0.000000 0.000000 7.125000 0.000000 0.000000 53.171391 56.630717 -18.755179
3.138480 14.906366 -9.829754 114.791080 -80.275318 261.379770 0.000000 0.000000 0.000000 -14.038033 5.562718 -56.938645 12.915993 18.750830 68.863488 0.535161 -6.532349 -13.157430 1.542201 -7.837110 -22.221537 0.000000 0.000000 0.000000 -3.820572 6.332923 -53.168595 -11.695646 -18.258823 65.020590 -1.661644 -3.110364 -25.636512 -0.392852 4.022791 -11.141098 3.810706 -2.230617 30.275801 -1.142827 -2.550511 7.828372 -2.529076 -1.538316 -7.967184 -11.261642 -5.377403 -33.522460 -4.659203 -1.141108 17.768064 -0.260045 -2.121728 11.294108 0.000000 0.000000 0.000000 -6.408247 -31.822756 -109.777817 33.383858 -43.622997 13.686250 25.732985 -9.801775 15.742553 0.000000 0.000000 0.000000 -7.125000 0.000000 0.000000 -1.304045 12.606874 -0.988155 0.000000 0.000000 0.000000 -6.816656 -9.910520 49.878902 -23.962622 -35.124721 -7.685039 18.248928 -72.599785 34.794341 0.000000 0.000000 0.000000 7.125000 0.000000 0.000000 54.674082 56.337643 -19.117905
2.985203 14.894800 -9.930742 105.217888 -80.627673 271.536885 0.000000 0.000000 0.000000 -12.293900 4.812477 -56.457139 10.648013 17.750448 61.622635 0.544163 0.826545 -14.296152 0.570547 -4.810742 -13.374357 0.000000 0.000000 0.000000 -3.727891 5.478616 -53.295657 -12.042769 -18.408682 66.124343 -1.784845 -3.282019 -26.591008 -0.273266 3.352738 -9.263228 3.784888 -2.250095 29.808287 -1.465810 -2.636784 8.111756 -2.863058 -1.567032 -7.444503 -13.137591 -8.241424 -32.595373 -0.278922 -5.453037 15.890686 0.905742 -3.470715 10.683169 0.000000 0.000000 0.000000 -6.076822 -32.203789 -109.943370 33.386116 -43.624742 13.687735 26.315476 -9.624054 15.356261 0.000000 0.000000 0.000000 -7.125000 0.000000 0.000000 -0.880791 12.947503 -0.661116 0.000000 0.000000 0.000000 -6.942145 -10.321552 50.339727 -24.057576 -35.224840 -7.739849 19.239598 -74.012530 35.080769 0.000000 0.000000 0.000000 7.125000 0.000000 0.000000 55.810894 56.309843 -19.680699
2.830858 14.900170 -9.976440 95.089293 -81.144870 281.921396 0.000000 0.000000 0.000000 -10.038895 3.702995 -55.448841 8.445428 16.430783 54.141509 0.231044 5.293366 -12.559462 0.374440 -3.929443 -10.878288 0.000000 0.000000 0.000000 -3.059609 4.879692 -52.559752 -12.149343 -18.453014 66.461296 -1.929752 -3.837513 -27.844914 -0.544208 4.693666 -13.042543 3.651094 -2.272793 30.258188 -1.468804 -2.671594 8.034141 -2.765199 -1.580707 -7.745129 -14.593343 -10.072759 -31.506677 3.268803 -8.280861 15.045262 1.935949 -4.333204 10.581940 0.000000 0.000000 0.000000 -6.305451 -31.965439 -109.879990 33.033888 -43.355921 13.445345 26.806921 -10.038573 15.622730 0.000000 0.000000 0.000000 -7.125000 0.000000 0.000000 -0.575671 12.584515 -0.436536 0.000000 0.000000 0.000000 -6.529856 -10.427081 50.006413 -23.363449 -34.483710 -7.343070 19.810128 -74.119647 34.837767 0.000000 0.000000 0.000000 7.125000 0.000000 0.000000 56.015318 56.028049 -19.375930
2.693823 14.909500 -9.953192 85.951053 -81.006165 291.376033 0.000000 0.000000 0.000000 -8.747210 2.690846 -54.920637 7.008144 15.338255 48.904041 -0.032674 7.082761 -9.286533 0.304920 -3.549088 -9.811437 0.000000 0.000000 0.000000 -3.171169 4.347882 -52.088872 -12.239137 -18.489941 66.744907 -1.963640 -4.485807 -28.383005 -0.680910 5.276074 -14.697657 2.995723 -2.080055 30.392850 -1.666536 -2.647004 8.258722 -2.618319 -1.560624 -7.540418 -15.610893 -11.523512 -30.354562 6.540215 -10.718977 13.605487 2.852304 -5.072902 10.344923 0.000000 0.000000 0.000000 -6.219348 -32.299931 -110.152076 33.122356 -43.423845 13.506080 25.603875 -10.348251 15.533172 0.000000 0.000000 0.000000 -7.125000 0.000000 0.000000 -1.372814 12.853383 -1.033197 0.000000 0.000000 0.000000 -6.115507 -10.809351 49.398569 -22.941816 -34.025140 -7.105729 18.435218 -72.641183 32.245126 0.000000 0.000000 0.000000 7.125000 0.000000 0.000000 52.237038 54.556796 -15.474440
2.554210 14.907519 -9.856295 75.799062 -81.393291 301.984735 0.000000 0.000000 0.000000 -7.888318 2.531699 -55.874436 6.405098 14.809551 46.586335 -0.196883 8.603990 -6.939557 0.324551 -3.653907 -10.105904 0.000000 0.000000 0.000000 -2.867398 4.510693 -51.403236 -12.222610 -18.483161 66.692762 -1.999218 -5.662237 -29.221692 -0.725784 5.438054 -15.163615 2.678123 -2.068055 30.823556 -1.590442 -2.683977 8.086783 -2.323026 -1.571880 -7.928075 -17.362900 -12.789188 -29.125280 10.136011 -12.693829 12.575134 4.057674 -5.652671 10.410633 0.000000 0.000000 0.000000 -6.466610 -31.732160 -109.288164 32.988009 -43.320705 13.413863 23.018966 -9.398028 13.698803 0.000000 0.000000 0.000000 -7.125000 0.000000 0.000000 -2.999114 15.155917 -2.107868 0.000000 0.000000 0.000000 -5.955503 -10.408557 49.787591 -22.838890 -33.912082 -7.048216 17.800282 -69.385389 23.141300 0.000000 0.000000 0.000000 7.125000 0.000000 0.000000 44.014772 47.985600 -4.012327
